<svg width="343" height="148" viewBox="0 0 343 148" fill="none" xmlns="http://www.w3.org/2000/svg">
<g filter="url(#filter0_d)">
<rect x="4" width="335" height="140" rx="5" fill="white"/>
<path d="M100.855 70.0017C100.855 47.5601 133.644 30.8491 171.492 30.8491C209.34 30.8491 242.145 47.5601 242.145 70.0017C242.145 92.4502 209.34 109.12 171.492 109.12C133.644 109.12 100.855 92.4502 100.855 70.0017Z" fill="white"/>
<path fill-rule="evenodd" clip-rule="evenodd" d="M171.492 29C211.515 29 244 47.3718 244 70.0017C244 92.6351 211.515 111 171.492 111C131.485 111 99 92.6351 99 70.0017C99 47.3718 131.485 29 171.492 29ZM171.492 32.6983C133.509 32.6983 102.66 49.4435 102.66 70.0017C102.66 90.5685 133.509 107.274 171.492 107.274C209.475 107.274 240.323 90.5685 240.323 70.0017C240.323 49.4435 209.475 32.6983 171.492 32.6983ZM158.757 73.938H144.489C144.657 77.5028 146.631 79.1551 149.582 79.1551C151.775 79.1551 153.276 77.9017 153.664 76.6399H158.336C157.138 80.9529 153.664 82.9493 149.38 82.9493C143.308 82.9493 139.53 78.7082 139.53 72.6505C139.53 66.7828 143.527 62.314 149.38 62.314C155.958 62.314 159.129 67.918 158.757 73.938ZM149.245 66.0089C146.276 66.0089 144.758 68.0139 144.522 70.5787H153.782C153.428 67.8409 152.298 66.0089 149.245 66.0089ZM220.539 73.938H206.27C206.422 77.5028 208.412 79.1551 211.347 79.1551C213.556 79.1551 215.057 77.9017 215.445 76.6399H220.117C218.92 80.9529 215.445 82.9493 211.161 82.9493C205.072 82.9493 201.311 78.7082 201.311 72.6505C201.311 66.7828 205.309 62.314 211.161 62.314C217.739 62.314 220.91 67.918 220.539 73.938ZM211.009 66.0089C208.058 66.0089 206.54 68.0139 206.287 70.5787H215.563C215.209 67.8409 214.079 66.0089 211.009 66.0089ZM114.568 82.4185H119.864V70.7568H131.299V82.4185H136.595V55.3334H131.299V66.4233H119.864V55.3334H114.568V82.4185ZM161.675 82.4185H166.668V71.8303C166.668 67.8546 168.051 66.2264 170.918 66.2264C173.381 66.2264 174.494 67.817 174.494 71.0342V82.4185H179.469V70.3784C179.469 65.5329 178.053 62.314 172.402 62.314C170.176 62.314 167.848 63.3755 166.516 65.5706H166.398V62.8448H161.675V82.4185ZM183.72 82.4185H188.695V71.8183L196.049 82.4185H202.239L194.143 71.4348L201.311 62.8448H195.374L188.695 71.2841V55.3334H183.72V82.4185ZM223.457 82.4185H228.432V55.3334H223.457V82.4185Z" fill="#EC1B23"/>
<rect x="4.5" y="0.5" width="334" height="139" rx="4.5" stroke="#EBEBF1"/>
</g>
<defs>
<filter id="filter0_d" x="0" y="0" width="343" height="148" filterUnits="userSpaceOnUse" color-interpolation-filters="sRGB">
<feFlood flood-opacity="0" result="BackgroundImageFix"/>
<feColorMatrix in="SourceAlpha" type="matrix" values="0 0 0 0 0 0 0 0 0 0 0 0 0 0 0 0 0 0 127 0" result="hardAlpha"/>
<feOffset dy="4"/>
<feGaussianBlur stdDeviation="2"/>
<feComposite in2="hardAlpha" operator="out"/>
<feColorMatrix type="matrix" values="0 0 0 0 0 0 0 0 0 0 0 0 0 0 0 0 0 0 0.25 0"/>
<feBlend mode="normal" in2="BackgroundImageFix" result="effect1_dropShadow"/>
<feBlend mode="normal" in="SourceGraphic" in2="effect1_dropShadow" result="shape"/>
</filter>
</defs>
</svg>
